<?xml version="1.0" encoding="UTF-8"?>
<svg version="1.1" xmlns="http://www.w3.org/2000/svg" width="265" height="263">
<path d="M0 0 C1.25619141 0.02707031 2.51238281 0.05414062 3.80664062 0.08203125 C6.89370748 0.15245863 9.97720152 0.25091354 13.0625 0.375 C13.15748779 0.96289307 13.25247559 1.55078613 13.3503418 2.15649414 C18.46356827 33.27586355 29.22221183 62.430919 55.72436523 81.64868164 C71.38305306 92.57786823 87.89909549 98.71486092 106.0625 104.375 C106.0625 105.365 106.0625 106.355 106.0625 107.375 C103.6484375 109.4609375 103.6484375 109.4609375 100.4375 111.75 C97.0237044 114.19732609 93.69188689 116.61923026 90.625 119.5 C88.0625 121.375 88.0625 121.375 85.95239258 121.25805664 C81.81843819 119.99485541 78.10618566 118.08028237 74.26171875 116.12109375 C73.42534378 115.70078384 72.58896881 115.28047394 71.72724915 114.84742737 C69.06528892 113.50807328 66.40763108 112.16042049 63.75 110.8125 C61.94233502 109.90114164 60.13439529 108.990328 58.32617188 108.08007812 C53.90173895 105.85135268 49.48114515 103.61517683 45.0625 101.375 C43.13840062 105.22319877 43.45376381 109.54217473 44.78125 113.5390625 C47.38084649 119.13658076 50.51387514 122.24850159 56.26171875 124.7890625 C63.14072835 127.17707255 69.8560484 129.26248328 77.0625 130.375 C75.16041983 133.73708666 73.17295474 136.47101992 70.5 139.25 C48.03321049 164.231421 37.45878279 198.913368 36.88671875 232.01953125 C36.87471436 232.68422424 36.86270996 233.34891724 36.8503418 234.03375244 C36.80184417 236.78318848 36.75420145 239.53214967 36.73657227 242.28198242 C36.72104616 244.32020193 36.68088746 246.35675683 36.63671875 248.39453125 C36.62213623 249.59182861 36.60755371 250.78912598 36.5925293 252.02270508 C35.94819089 256.09797482 34.71987431 258.23659107 32.0625 261.375 C27.87838076 263.92978645 23.31580545 263.69732397 18.54296875 263.7109375 C17.72556717 263.7175943 16.90816559 263.7242511 16.06599426 263.73110962 C14.34048706 263.74120878 12.61494102 263.74592749 10.8894043 263.74560547 C8.2687026 263.74996886 5.64969991 263.7862883 3.02929688 263.82421875 C1.34635987 263.83008973 -0.33658506 263.83405724 -2.01953125 263.8359375 C-2.79375931 263.85030853 -3.56798737 263.86467957 -4.36567688 263.87948608 C-10.00624053 263.83283862 -14.34547397 262.73224775 -18.9375 259.375 C-23.84792399 253.78275156 -24.65873865 248.56581112 -24.55895996 241.33528137 C-24.56534878 240.35192124 -24.5717376 239.3685611 -24.57832003 238.35540217 C-24.59352704 235.07481269 -24.5731365 231.79543917 -24.55273438 228.51489258 C-24.55623677 226.15731914 -24.56189668 223.79974807 -24.56954956 221.44218445 C-24.58378755 215.04980707 -24.56674654 208.65786034 -24.54326439 202.26552415 C-24.52519098 196.25429798 -24.52840184 190.24309488 -24.53074223 184.23185047 C-24.53442853 172.32351998 -24.51363804 160.41535666 -24.47949219 148.50708008 C-24.44638089 136.95527932 -24.4322381 125.4036539 -24.43847656 113.85180664 C-24.44524116 101.26383938 -24.4427801 88.67594546 -24.42311716 76.08798903 C-24.42207768 75.42236681 -24.42103819 74.75674459 -24.4199672 74.07095199 C-24.41893006 73.40785253 -24.41789291 72.74475307 -24.41682434 72.06155968 C-24.40864355 66.7430735 -24.40594203 61.4246389 -24.40751648 56.10614967 C-24.40839425 49.84752393 -24.39420798 43.58910816 -24.36828995 37.3305378 C-24.36111755 35.03152229 -24.35904966 32.73248447 -24.36240768 30.43346024 C-24.36611209 27.30000029 -24.35141075 24.16715664 -24.33190918 21.0337677 C-24.33723711 20.11996127 -24.34256503 19.20615485 -24.34805441 18.26465732 C-24.29616225 13.44573919 -24.00306001 10.32422092 -20.9375 6.375 C-20.49720459 5.78509277 -20.05690918 5.19518555 -19.60327148 4.58740234 C-13.96151775 -1.12776575 -7.5923231 -0.31054075 0 0 Z " fill="#368940" transform="translate(25.9375,-0.375)"/>
<path d="M0 0 C0.33 0 0.66 0 1 0 C1.07005653 26.62503666 1.12297175 53.25005952 1.15543652 79.87516975 C1.17091059 92.23744918 1.19201051 104.59967137 1.22631836 116.96191406 C1.25620408 127.7358475 1.27557107 138.50973949 1.28226548 149.28371322 C1.28617912 154.98934617 1.2953881 160.69486051 1.31719017 166.40045547 C1.33754216 171.77003386 1.34383636 177.13944471 1.33932304 182.509058 C1.34014882 184.48031716 1.34612207 186.45158188 1.35761642 188.42280769 C1.3725403 191.11403787 1.36895394 193.80463533 1.36076355 196.49588013 C1.36950207 197.27604748 1.3782406 198.05621483 1.38724393 198.86002362 C1.34777843 203.65709786 0.53909016 206.92544053 -2 211 C-8.22224794 216.8947612 -13.82940928 217.30116779 -22.0234375 217.265625 C-23.00180573 217.26753845 -23.98017395 217.2694519 -24.9881897 217.27142334 C-27.06097673 217.27278307 -29.13377234 217.26910143 -31.20654297 217.26074219 C-34.32930484 217.25015492 -37.45147611 217.26058467 -40.57421875 217.2734375 C-55.58095213 217.28467878 -70.02976974 217.12610421 -84 211 C-84.69351563 210.70222656 -85.38703125 210.40445313 -86.1015625 210.09765625 C-101.54097103 202.93155627 -114.40076128 190.71634083 -121 175 C-124.69449242 164.73566358 -123.95737872 153.05540359 -120 143 C-112.29589263 126.75665167 -98.83041991 116.00482318 -82 110 C-78.52024762 109.11718029 -75.01711582 108.31969888 -71.48168945 107.69458008 C-67.61019918 106.89313715 -66.13037015 106.15910652 -63.58984375 103.05859375 C-61.04570719 98.16410007 -60.87620291 94.21135886 -60.9375 88.8125 C-60.94201172 88.06291016 -60.94652344 87.31332031 -60.95117188 86.54101562 C-60.96293646 84.69397617 -60.98087135 82.84697787 -61 81 C-62.26972656 80.78085938 -63.53945312 80.56171875 -64.84765625 80.3359375 C-80.57954013 77.49164237 -93.72503343 73.26382559 -107 64 C-107.99 63.34 -108.98 62.68 -110 62 C-109.39752441 61.98541748 -108.79504883 61.97083496 -108.17431641 61.95581055 C-73.6056209 61.02746164 -42.58553217 53.69791943 -17.875 27.8125 C-10.55252436 19.51058494 -4.62356828 10.05123539 0 0 Z " fill="#368940" transform="translate(264,46)"/>
<path d="M0 0 C18.93236648 -0.09346039 37.86468612 -0.16398755 56.79723549 -0.20724869 C65.58804666 -0.22786991 74.37871445 -0.25598205 83.16943359 -0.30175781 C90.83184257 -0.34163911 98.4941477 -0.36743602 106.15665758 -0.37635398 C110.21357413 -0.38156657 114.27019362 -0.39380865 118.32701492 -0.42292023 C122.14703477 -0.45010993 125.96663574 -0.45843794 129.78674316 -0.45243073 C131.18717095 -0.45352939 132.58761302 -0.46146249 133.987957 -0.4768219 C147.08237808 -0.6133769 147.08237808 -0.6133769 152 4 C153.49609375 5.67578125 153.49609375 5.67578125 154.4375 7.3125 C154.76621094 7.84488281 155.09492188 8.37726562 155.43359375 8.92578125 C157.03215297 14.77981535 154.20023661 20.55858875 151.8125 25.8125 C151.49788818 26.51391113 151.18327637 27.21532227 150.85913086 27.93798828 C140.69529472 50.192357 124.66545283 66.37462033 101.74609375 75.26171875 C82.65082105 81.34233631 61.59663401 79.37595904 43.6875 70.75 C37.49627826 67.47640023 32.1923272 63.68309721 27 59 C26.31550781 58.40832031 25.63101563 57.81664062 24.92578125 57.20703125 C9.64422544 43.12638356 2.79210375 23.06354625 0 3 C0 2.01 0 1.02 0 0 Z " fill="#368940" transform="translate(109,0)"/>
<path d="M0 0 C11.22 0 22.44 0 34 0 C34 4.95 34 9.9 34 15 C34.44959051 18.03913135 34.89787192 20.70759833 35.6875 23.625 C35.86829102 24.33245361 36.04908203 25.03990723 36.23535156 25.76879883 C40.55782896 42.09222602 47.97699234 56.23054873 59 69 C59.60585937 69.71542969 60.21171875 70.43085937 60.8359375 71.16796875 C62.21327287 72.78779274 63.60480874 74.39553005 65 76 C45.64942799 74.03689849 27.03075671 58.33331197 15 44 C5.62800199 31.26698567 0 15.76161112 0 0 Z " fill="#368940" transform="translate(64,0)"/>
<path d="M0 0 C9.46031468 -1.37327149 16.03435292 2.50067197 24 7 C23.67 7.99 23.34 8.98 23 10 C8.61565259 12.44839956 8.61565259 12.44839956 3.5 9.0625 C1 7 1 7 0 6 C-0.04080783 4.00041636 -0.04254356 1.99954746 0 0 Z " fill="#368A40" transform="translate(139,123)"/>
<path d="" fill="#3F7F3F" transform="translate(0,0)"/>
</svg>
